<svg width="23" height="23" viewBox="0 0 23 23" fill="none" xmlns="http://www.w3.org/2000/svg">
<path fill-rule="evenodd" clip-rule="evenodd" d="M4.82059 2.88136C4.89234 3.94563 5.07171 4.98598 5.35871 5.9785L3.92374 7.41346C3.43346 5.9785 3.12255 4.45983 3.01493 2.88136H4.82059V2.88136ZM16.6111 17.255C17.6276 17.5419 18.6679 17.7213 19.7202 17.7931V19.5748C18.1418 19.4672 16.6231 19.1563 15.1762 18.678L16.6111 17.255V17.255ZM5.96852 0.489746H1.78321C1.12551 0.489746 0.587402 1.02786 0.587402 1.68555C0.587402 12.9142 9.68747 22.0142 20.9161 22.0142C21.5738 22.0142 22.1119 21.4761 22.1119 20.8184V16.6451C22.1119 15.9874 21.5738 15.4493 20.9161 15.4493C19.4333 15.4493 17.9864 15.2101 16.6471 14.7676C16.5275 14.7198 16.3959 14.7079 16.2764 14.7079C15.9654 14.7079 15.6665 14.8274 15.4273 15.0546L12.7966 17.6854C9.41244 15.9515 6.63817 13.1892 4.91621 9.80506L7.54698 7.17429C7.88181 6.83947 7.97747 6.3731 7.84593 5.95457C7.40349 4.61527 7.16433 3.18031 7.16433 1.68555C7.16433 1.02786 6.62621 0.489746 5.96852 0.489746Z" fill="#57B5AC"/>
</svg>
