<svg width="18" height="25" viewBox="0 0 18 25" fill="none" xmlns="http://www.w3.org/2000/svg">
<path fill-rule="evenodd" clip-rule="evenodd" d="M9.34963 0.895508C13.9774 0.895508 17.7203 4.63838 17.7203 9.26614C17.7203 15.5441 9.34963 24.8116 9.34963 24.8116C9.34963 24.8116 0.979004 15.5441 0.979004 9.26614C0.979004 4.63838 4.72187 0.895508 9.34963 0.895508ZM3.37063 9.26614C3.37063 12.6742 6.86238 17.8879 9.34965 21.0807C11.8848 17.864 15.3287 12.7101 15.3287 9.26614C15.3287 5.96572 12.6501 3.28712 9.34965 3.28712C6.04923 3.28712 3.37063 5.96572 3.37063 9.26614ZM9.34965 12.2557C7.69859 12.2557 6.36014 10.9172 6.36014 9.26614C6.36014 7.61508 7.69859 6.27663 9.34965 6.27663C11.0007 6.27663 12.3392 7.61508 12.3392 9.26614C12.3392 10.9172 11.0007 12.2557 9.34965 12.2557Z" fill="#57B5AC"/>
</svg>
